<svg width="379" height="100" viewBox="0 0 379 100" fill="none" xmlns="http://www.w3.org/2000/svg">
<path fill-rule="evenodd" clip-rule="evenodd" d="M339 0H307.6H272.6V80V100H307.6V80H339C361.091 80 379 62.0914 379 40C379 17.9086 361.091 0 339 0Z" fill="#fff"/>
<path fill-rule="evenodd" clip-rule="evenodd" d="M211.6 27V1.90735e-06L220.4 0H253.4H262V27H253.4V74H262V100H253.4H220.4H211.6V74H220.4V27H211.6Z" fill="#fff"/>
<path fill-rule="evenodd" clip-rule="evenodd" d="M111 3.8147e-06L111 27L111 37L111 64L111 74L111 100H146L201.6 100V74L146 74V64L201.6 64V37L146 37V27L201.6 27V0H146H111L111 3.8147e-06Z" fill="#fff"/>
<path d="M0 0H57.4C85.0142 0 107.4 22.3858 107.4 50C107.4 77.6142 85.0142 100 57.4 100H0V0Z" fill="#fff"/>
</svg>
